<?xml version="1.0" standalone="no"?>
<!DOCTYPE svg PUBLIC "-//W3C//DTD SVG 20010904//EN"
 "http://www.w3.org/TR/2001/REC-SVG-20010904/DTD/svg10.dtd">
<svg version="1.0" xmlns="http://www.w3.org/2000/svg"
 width="180.000000pt" height="180.000000pt" viewBox="0 0 180.000000 180.000000"
 preserveAspectRatio="xMidYMid meet">
<metadata>
Created by potrace 1.11, written by Peter Selinger 2001-2013
</metadata>
<g transform="translate(0.000000,180.000000) scale(0.100000,-0.100000)"
fill="#000000" stroke="none">
<path d="M0 1318 l0 -482 30 29 c17 16 30 39 30 52 0 13 5 23 10 23 6 0 10
-11 10 -25 0 -22 4 -25 35 -25 19 0 35 5 35 10 0 6 9 10 20 10 12 0 35 7 53
16 30 16 211 80 251 89 14 3 17 0 13 -15 -3 -11 -1 -18 4 -14 5 3 9 2 9 -3 0
-4 -21 -17 -48 -27 -26 -11 -87 -39 -136 -63 -49 -24 -95 -43 -102 -43 -18 0
-17 -10 1 -34 8 -11 15 -14 15 -8 0 7 7 12 15 12 8 0 23 4 33 9 9 4 57 27 106
50 48 23 86 45 82 48 -8 8 25 32 44 32 8 0 5 -4 -8 -9 -13 -6 -22 -15 -21 -22
3 -24 -1 -38 -10 -38 -5 0 -33 -16 -62 -35 -30 -19 -59 -35 -66 -35 -7 0 -13
-5 -13 -11 0 -5 -4 -8 -9 -5 -5 4 -23 -7 -39 -24 -17 -16 -38 -30 -46 -30 -10
0 -16 -9 -16 -22 0 -12 -12 -35 -27 -51 l-28 -30 29 19 c29 18 29 18 18 -2 -9
-16 -8 -26 3 -40 19 -25 19 -40 0 -24 -13 11 -14 10 -8 -6 4 -10 13 -23 20
-29 7 -6 14 -37 17 -74 3 -56 6 -66 30 -80 14 -8 26 -19 26 -23 0 -13 -12 -9
-26 10 -11 14 -11 10 -3 -28 6 -24 15 -50 21 -57 6 -8 6 -13 1 -13 -18 0 -42
36 -52 76 -9 37 -9 36 -12 -31 -5 -137 0 -156 79 -260 26 -34 40 -61 33 -63
-52 -17 69 -22 596 -22 538 0 598 2 615 16 16 16 18 16 24 0 5 -13 23 -16 115
-16 l109 0 0 900 0 900 -900 0 -900 0 0 -482z m786 338 c-15 -23 -14 -25 4
-31 16 -5 17 -10 10 -31 -7 -19 -6 -24 5 -24 11 0 12 -5 5 -25 -7 -18 -6 -25
2 -25 6 0 8 -3 5 -7 -4 -3 -2 -12 4 -19 8 -10 7 -24 -1 -51 -17 -50 -28 -63
-56 -63 -24 0 -24 -1 -39 142 -7 62 1 85 43 131 32 34 39 35 18 3z m-191 -316
c-4 -6 5 -10 19 -10 14 0 26 -4 26 -10 0 -5 -17 -10 -37 -10 -56 0 -158 -66
-146 -96 4 -10 14 -7 43 12 22 14 44 23 51 19 6 -4 15 -2 19 5 5 8 13 9 24 3
14 -8 13 -13 -9 -43 -25 -34 -34 -67 -15 -55 6 4 16 2 23 -3 7 -6 35 -17 62
-25 28 -8 57 -18 65 -21 10 -4 22 4 35 26 16 28 16 31 2 19 -9 -7 -17 -9 -17
-3 0 5 7 12 15 16 9 3 12 12 9 21 -4 9 -13 14 -20 11 -8 -3 -14 0 -14 6 0 7
-5 6 -15 -2 -10 -8 -15 -9 -15 -2 0 20 39 33 75 26 38 -7 49 -38 18 -48 -28
-9 -32 -106 -6 -144 9 -15 18 -29 18 -32 0 -3 5 -13 11 -24 9 -14 13 -16 19
-5 5 7 4 14 -3 17 -17 5 -15 22 2 22 19 0 24 33 13 90 -6 35 -3 58 14 105 26
72 18 62 54 70 25 6 28 5 18 -6 -10 -10 -10 -16 3 -30 19 -21 11 -39 -17 -39
-29 0 -25 -23 18 -99 2 -2 10 2 19 10 16 13 16 12 6 -7 -9 -16 -8 -25 3 -40 8
-11 15 -29 15 -41 0 -27 17 -31 22 -5 3 13 8 10 21 -15 12 -23 22 -31 34 -26
13 5 15 3 9 -13 -5 -10 -11 -27 -13 -36 -7 -23 -23 -23 -23 -1 0 9 -3 13 -7
10 -3 -4 2 -23 13 -42 15 -29 16 -37 5 -47 -11 -11 -12 -9 -6 11 5 15 3 21 -3
17 -11 -7 -10 -74 1 -94 5 -6 4 -12 -2 -12 -6 0 -11 5 -11 10 0 6 -7 10 -17
10 -9 0 -31 11 -49 25 -40 30 -48 31 -41 5 3 -11 1 -20 -3 -20 -14 0 -19 14
-22 63 -2 28 -9 49 -16 52 -19 7 -32 -3 -26 -19 3 -7 -2 -13 -11 -13 -17 0
-20 22 -4 32 7 5 4 15 -9 29 -10 11 -33 47 -51 78 -24 42 -40 60 -59 64 -160
35 -233 68 -267 121 -15 22 -15 27 -1 48 27 41 79 75 105 68 16 -4 26 -1 33
11 5 9 11 16 14 16 3 0 2 -4 -1 -10z m173 -27 c-10 -2 -28 -2 -40 0 -13 2 -5
4 17 4 22 1 32 -1 23 -4z m667 -65 c22 -104 4 -226 -29 -199 -12 10 -13 8 -9
-9 5 -21 4 -21 -18 -8 -13 7 -26 15 -29 18 -3 3 -18 6 -35 8 -37 4 -42 9 -27
24 9 9 18 9 37 0 l25 -12 -15 30 c-10 19 -21 28 -28 24 -7 -4 -9 -3 -4 1 8 9
-20 45 -36 45 -5 0 -2 -11 7 -25 21 -32 20 -40 -3 -42 -14 -1 -18 4 -14 20 4
17 2 19 -5 8 -19 -27 -54 -1 -57 41 -2 43 18 57 45 33 15 -14 23 -14 59 -3 22
7 41 16 41 19 0 3 18 14 39 24 28 12 38 22 34 33 -4 9 -2 13 4 9 6 -4 14 -21
18 -39z m-605 -78 c-6 -12 -14 -20 -17 -17 -2 3 1 14 8 26 17 26 24 19 9 -9z
m660 16 c0 -3 -4 -8 -10 -11 -5 -3 -10 -1 -10 4 0 6 5 11 10 11 6 0 10 -2 10
-4z m-957 -84 c24 2 33 -1 35 -14 2 -13 -1 -16 -12 -12 -9 4 -16 1 -16 -6 0
-8 -10 -11 -27 -7 -15 3 -65 -5 -113 -18 -197 -54 -277 -73 -317 -78 -37 -4
-43 -2 -43 13 0 13 9 20 28 22 23 2 27 7 24 29 -3 31 25 61 33 35 3 -9 7 -23
10 -32 3 -8 0 -12 -5 -9 -6 3 -10 2 -10 -3 0 -15 33 -24 40 -12 10 16 226 70
283 70 46 0 47 1 42 28 -5 23 -5 24 5 9 8 -13 21 -17 43 -15z m287 11 c0 -10
3 -29 6 -43 l5 -25 -14 25 c-9 14 -13 29 -10 34 4 5 1 6 -5 2 -8 -5 -7 -19 4
-49 l14 -42 -19 24 c-10 14 -17 31 -14 38 3 7 -1 13 -7 13 -9 0 -7 7 5 20 22
25 35 26 35 3z m358 -2 c3 -8 -1 -12 -9 -9 -7 2 -15 10 -17 17 -3 8 1 12 9 9
7 -2 15 -10 17 -17z m-728 -13 c0 -5 -14 -8 -31 -8 -16 0 -28 4 -25 9 7 11 56
9 56 -1z m81 -63 c-1 -9 -11 -11 -43 -6 -7 2 -4 6 7 11 24 10 37 8 36 -5z
m874 -35 c3 -5 1 -10 -4 -10 -6 0 -11 5 -11 10 0 6 2 10 4 10 3 0 8 -4 11 -10z
m-152 -7 c-7 -2 -19 -2 -25 0 -7 3 -2 5 12 5 14 0 19 -2 13 -5z m-654 -32 c11
-7 12 -13 3 -23 -12 -16 0 -44 16 -34 5 3 13 -1 16 -10 4 -11 13 -14 28 -11
34 9 77 -20 94 -63 9 -22 23 -40 31 -40 10 0 13 -6 9 -16 -3 -8 -2 -12 4 -9 6
3 10 2 10 -4 0 -5 -8 -14 -17 -20 -12 -6 -17 -24 -19 -62 -1 -38 -7 -56 -20
-66 -22 -16 -26 -16 -50 2 -18 13 -16 14 21 16 32 1 35 2 16 8 -19 5 -24 14
-26 44 -1 20 1 37 4 37 15 -1 29 -17 34 -40 4 -22 4 -21 6 6 0 20 -5 34 -14
38 -12 4 -14 15 -9 46 5 32 4 40 -9 40 -9 0 -19 5 -23 12 -5 8 -2 9 9 5 10 -3
17 -2 17 2 0 11 -25 21 -51 21 -11 0 -17 5 -14 10 3 6 2 10 -3 10 -6 0 -13 -8
-17 -17 -6 -16 -8 -15 -16 5 -4 12 -15 22 -24 22 -14 0 -14 -3 0 -31 22 -41 6
-94 -32 -104 -14 -3 -27 -4 -30 -2 -2 3 7 7 21 11 31 8 43 45 27 85 -7 15 -9
40 -6 54 5 20 2 29 -19 42 -23 16 -39 44 -17 30 5 -3 12 -1 16 5 8 12 16 12
34 1z m769 -28 c4 -26 -3 -29 -23 -9 -9 9 -36 13 -79 12 -37 0 -66 0 -66 1 0
7 72 19 115 19 44 -1 50 -4 53 -23z m-11 -39 c-3 -3 -12 -4 -19 -1 -8 3 -5 6
6 6 11 1 17 -2 13 -5z m-12 -39 c-1 -14 -5 -28 -8 -31 -5 -5 -3 43 2 54 5 11
9 -3 6 -23z m-788 -26 c-30 -8 -36 0 -13 17 16 11 21 11 28 1 5 -8 0 -14 -15
-18z m-44 -6 c10 -13 13 -23 7 -23 -7 0 -8 -5 -3 -12 4 -7 9 -22 9 -33 1 -11
2 -31 3 -44 1 -23 2 -23 29 -7 l27 17 -23 -20 c-18 -16 -22 -26 -16 -43 4 -13
8 -28 8 -35 1 -7 16 -26 34 -42 35 -33 40 -57 17 -87 -14 -18 -14 -17 -15 16
0 24 -8 43 -25 58 -26 25 -46 82 -47 135 -1 20 -7 31 -20 35 -10 2 -18 9 -18
14 0 5 5 6 11 2 7 -4 10 1 7 11 -5 30 -26 28 -33 -4 -3 -16 -17 -37 -31 -46
l-25 -16 2 51 c2 28 7 54 12 57 6 4 7 1 2 -7 -5 -8 -3 -11 6 -8 8 3 13 11 12
17 -3 10 10 15 29 12 4 0 5 5 2 12 -8 23 21 15 39 -10z m745 16 c9 0 2 -5 -17
-10 -36 -11 -47 -7 -36 11 4 6 14 9 22 6 8 -3 22 -6 31 -7z m-844 -13 c-6 -15
-143 -110 -150 -104 -3 3 145 117 153 118 1 0 0 -6 -3 -14z m456 -42 c-7 -7
-24 -14 -39 -13 -23 0 -24 1 -6 8 11 5 27 21 35 37 14 26 15 26 18 5 2 -12 -2
-29 -8 -37z m446 18 c-7 -12 -46 -4 -46 9 0 5 7 6 15 3 9 -4 15 -1 15 7 0 10
3 10 11 2 6 -6 8 -16 5 -21z m74 -116 c-12 -64 -18 -121 -15 -126 3 -6 2 -10
-4 -10 -6 0 -15 9 -21 20 -6 11 -17 20 -24 20 -11 0 -10 11 6 53 29 78 70 168
75 164 2 -3 -6 -57 -17 -121z m-733 2 c3 -29 11 -56 17 -60 8 -6 8 -8 0 -8
-22 0 -32 25 -39 90 -5 49 -4 61 5 48 6 -10 14 -42 17 -70z m243 72 c-20 -13
-33 -13 -25 0 3 6 14 10 23 10 15 0 15 -2 2 -10z m-50 -35 c-7 -8 -16 -15 -21
-15 -5 0 -9 7 -9 15 0 9 9 15 21 15 18 0 19 -2 9 -15z m63 -12 c4 -3 -2 -13
-14 -21 -24 -17 -37 -9 -19 13 14 16 23 19 33 8z m-610 -30 c18 -23 33 -83 21
-83 -9 0 -73 94 -68 101 9 16 26 10 47 -18z m285 -14 c-2 -6 -8 -10 -13 -10
-5 0 -11 4 -13 10 -2 6 4 11 13 11 9 0 15 -5 13 -11z m371 8 c-2 -1 -12 -9
-21 -16 -15 -12 -18 -11 -18 3 0 10 8 16 22 16 12 0 19 -1 17 -3z m21 -42 c-7
-8 -17 -15 -22 -15 -6 0 -5 7 2 15 7 8 17 15 22 15 6 0 5 -7 -2 -15z m228 -14
c26 -10 59 -21 72 -24 19 -3 16 -4 -10 -5 -19 -1 -55 10 -80 23 -55 29 -48 32
18 6z m-162 -26 c-11 -8 -27 -15 -35 -15 -13 1 -12 4 3 15 11 8 27 15 35 15
13 -1 12 -4 -3 -15z m-631 -69 c6 -4 1 -4 -10 2 -11 6 -31 23 -45 39 l-25 28
35 -30 c19 -16 40 -34 45 -39z m285 48 c17 -4 36 -2 43 4 10 9 12 4 9 -23 -3
-26 -11 -37 -37 -49 -48 -23 -75 -21 -75 7 0 12 -7 31 -15 41 -23 30 -18 39
15 32 17 -3 44 -9 60 -12z m383 -9 c-22 -17 -30 -11 -13 10 7 8 17 12 22 9 5
-3 1 -12 -9 -19z m-804 -28 c6 -8 29 -20 51 -27 22 -7 40 -17 40 -22 0 -11
-18 -10 -25 2 -3 6 -18 8 -33 5 -23 -5 -24 -4 -7 5 19 9 18 10 -5 9 -43 -2
-49 1 -47 21 2 23 10 25 26 7z m271 -37 c0 -16 -4 -30 -8 -30 -5 0 -7 14 -4
30 2 17 6 30 8 30 2 0 4 -13 4 -30z m567 13 c-9 -9 -20 -13 -24 -9 -4 4 -1 11
7 16 25 16 35 11 17 -7z m183 -16 c14 -13 32 -32 40 -42 8 -11 -4 -4 -25 15
-22 19 -44 38 -49 42 -6 5 -6 8 0 8 5 0 20 -11 34 -23z m-546 -13 c10 -27 7
-71 -6 -82 -16 -13 -115 -42 -142 -42 -16 0 -17 3 -8 12 15 15 15 51 0 66 -16
16 -8 22 48 31 27 4 58 12 69 19 27 15 32 15 39 -4z m426 -3 c0 -10 -24 -21
-43 -21 -7 0 -3 7 7 15 22 17 36 19 36 6z m-610 -52 c0 -14 -17 -10 -23 5 -4
10 -1 13 9 9 7 -3 14 -9 14 -14z m643 -1 c-13 -12 -26 -18 -30 -14 -4 4 1 14
11 22 31 22 43 17 19 -8z m60 -35 c8 -8 -23 -32 -42 -33 -11 0 -10 5 4 20 19
21 28 24 38 13z m231 -9 c5 -14 4 -15 -9 -4 -17 14 -19 20 -6 20 5 0 12 -7 15
-16z m-1065 -34 c38 0 38 -9 0 -11 -64 -2 -120 4 -108 12 11 7 11 9 1 9 -7 0
-11 4 -8 9 3 5 23 3 43 -5 21 -7 53 -13 72 -14z m-132 14 c-3 -3 -12 -4 -19
-1 -8 3 -5 6 6 6 11 1 17 -2 13 -5z m441 -15 c3 -11 2 -11 -8 1 -8 12 -10 7
-8 -24 3 -31 -1 -41 -22 -54 -17 -11 -21 -11 -12 -2 14 17 16 50 2 50 -5 0
-10 -9 -10 -20 0 -21 -32 -34 -71 -28 -19 2 -23 9 -22 28 3 23 2 23 -11 8 -15
-20 -26 -14 -26 14 0 15 8 18 49 18 27 0 64 7 82 15 39 16 51 15 57 -6z m761
-48 c7 -5 12 -14 9 -21 -2 -7 -10 -4 -22 9 -19 21 -12 28 13 12z m-149 -56
c-21 -26 -31 -16 -13 11 9 15 19 21 21 15 2 -6 -2 -18 -8 -26z m110 31 c0 -3
-4 -8 -10 -11 -5 -3 -10 -1 -10 4 0 6 5 11 10 11 6 0 10 -2 10 -4z m-70 -71
c-7 -9 -15 -13 -18 -10 -3 2 1 11 8 20 7 9 15 13 18 10 3 -2 -1 -11 -8 -20z
m120 15 c0 -5 -4 -10 -10 -10 -5 0 -10 5 -10 10 0 6 5 10 10 10 6 0 10 -4 10
-10z m-50 -49 c0 -13 -29 -35 -37 -28 -7 8 15 37 28 37 5 0 9 -4 9 -9z m90 -1
c0 -5 -4 -10 -10 -10 -5 0 -10 5 -10 10 0 6 5 10 10 10 6 0 10 -4 10 -10z
m-71 -66 c-15 -18 -22 -13 -13 10 3 9 10 13 16 10 5 -3 4 -12 -3 -20z m106 16
c-3 -5 -11 -10 -16 -10 -6 0 -7 5 -4 10 3 6 11 10 16 10 6 0 7 -4 4 -10z m35
-50 c0 -5 -4 -10 -10 -10 -5 0 -10 5 -10 10 0 6 5 10 10 10 6 0 10 -4 10 -10z
m-90 -9 c0 -5 -7 -12 -16 -15 -24 -9 -28 -7 -14 9 14 17 30 20 30 6z m122 -43
c-6 -6 -15 -8 -19 -4 -4 4 -1 11 7 16 19 12 27 3 12 -12z"/>
<path d="M840 960 c-15 -9 -9 -23 13 -26 7 -1 13 7 13 17 0 21 -4 23 -26 9z"/>
<path d="M1360 1155 c11 -13 15 -13 23 -3 6 9 7 7 3 -6 -8 -24 13 -53 25 -34
5 7 9 22 9 33 0 17 -7 21 -37 23 -32 3 -35 1 -23 -13z"/>
<path d="M210 900 c-8 -5 -10 -10 -5 -10 6 0 17 5 25 10 8 5 11 10 5 10 -5 0
-17 -5 -25 -10z"/>
<path d="M63 832 c-48 -38 -49 -103 -1 -136 30 -21 56 -20 96 4 27 17 32 25
32 59 0 23 -8 48 -18 61 -24 30 -79 36 -109 12z"/>
<path d="M0 351 l0 -351 74 0 75 0 -29 58 c-35 69 -36 71 -26 197 4 55 9 121
10 146 2 25 11 59 20 75 13 22 16 24 12 7 -3 -13 -8 -33 -11 -45 -3 -13 10 6
29 42 35 65 45 97 26 85 -5 -3 -7 0 -4 8 3 8 1 18 -5 22 -6 3 -11 15 -11 26 0
16 -7 19 -45 19 -35 0 -51 6 -80 31 l-35 31 0 -351z"/>
<path d="M182 477 c-6 -15 -15 -39 -18 -53 -3 -13 -10 -27 -15 -30 -17 -10 -9
-89 12 -129 35 -66 40 -65 34 5 -4 42 -1 84 8 118 8 28 11 52 6 52 -4 0 -9 15
-11 33 l-4 32 -12 -28z"/>
<path d="M120 231 c0 -85 106 -230 169 -231 22 0 23 1 9 18 -9 9 -19 28 -23
41 -4 13 -29 51 -56 84 -26 33 -51 73 -54 88 -9 41 -45 41 -45 0z"/>
<path d="M100 151 c0 -32 24 -81 58 -121 44 -51 48 -32 7 35 -19 33 -35 64
-35 71 0 6 -7 17 -15 24 -13 10 -15 9 -15 -9z"/>
</g>
</svg>
